# xmcd
#
# Track frame offsets: 
#        150
#        14213
#        28747
#        42070
#        58882
#        75374
#        89502
#        102629
#        120825
#        138461
#        152425
#        165452
#
# Disc length: 2447 seconds
#
# Revision: 0
# Processed by: cddbd v1.5.2PL0 Copyright (c) Steve Scherf et al.
# Submitted via: ExactAudioCopyFreeDBPlugin 1.0
#
DISCID=93098d0c
DTITLE=Vox Angeli - Les Nouvelles Voix
DYEAR=2014
DGENRE=Country
TTITLE0=Cette force en lui (Asimbonanga)
TTITLE1=C'est ma Terre
TTITLE2=Frontières
TTITLE3=Il faudra leur dire
TTITLE4=Le pouvoir des fleurs
TTITLE5=S'il suffisait d'aimer
TTITLE6=L'oiseau et l'enfant
TTITLE7=La paix sur Terre
TTITLE8=Rosa
TTITLE9=Sauver l'amour
TTITLE10=Imagine
TTITLE11=Noir et blanc
EXTD=
EXTT0=
EXTT1=
EXTT2=
EXTT3=
EXTT4=
EXTT5=
EXTT6=
EXTT7=
EXTT8=
EXTT9=
EXTT10=
EXTT11=
PLAYORDER=
